<svg width="684" height="441" viewBox="0 0 684 441" fill="none" xmlns="http://www.w3.org/2000/svg">
<g id="OBJECTS">
<g id="Group">
<path id="&#60;/&#62;" d="M280.79 247.923V246.478L292.426 240.551V242.864L283.5 247.164L283.573 247.02V247.381L283.5 247.237L292.426 251.537V253.85L280.79 247.923ZM303.486 235.059L297.523 257.21H295.572L301.534 235.059H303.486ZM318.263 247.923L306.627 253.85V251.537L315.553 247.237L315.481 247.381V247.02L315.553 247.164L306.627 242.864V240.551L318.263 246.478V247.923Z" fill="#323247"/>
</g>
<g id="Group_2">
<path id="Vector" d="M432.058 160.789C430.567 193.454 398.457 218.484 374.405 219.995C342.627 221.992 319.916 193.334 316.752 160.789C314.011 132.594 324.024 133.014 331.481 121.262C340.517 107.023 357.356 99.1541 374.405 99.1541C406.246 99.1541 434.065 116.841 432.058 160.789Z" fill="#B83D5D"/>
<path id="Vector_2" d="M396.749 216.945H352.063V272.888H396.749V216.945Z" fill="#E3B5AA"/>
<g id="Group_3">
<g id="Group_4">
<path id="Vector_3" d="M424.6 184.315C432.571 172.219 442.713 171.689 446.948 185.994C451.183 200.3 437.206 212.072 425.825 207.728C414.445 203.384 424.6 184.315 424.6 184.315Z" fill="#E3B5AA"/>
<path id="Vector_4" d="M434.01 184.631C439.349 183.654 442.086 199.562 430.377 200.087L432.785 194.537L430.525 189.919L434.01 184.631Z" fill="#D78F97"/>
<path id="Vector_5" d="M428.625 202.268C435.45 194.993 430.525 189.919 430.525 189.919C430.525 189.919 437.021 176.595 439.625 186.807" stroke="#C87E84" stroke-width="0.5" stroke-miterlimit="10"/>
</g>
</g>
<g id="Group_5">
<g id="Group_6">
<path id="Vector_6" d="M323.838 184.315C315.867 172.219 305.725 171.689 301.49 185.994C297.255 200.3 311.232 212.072 322.613 207.728C333.993 203.384 323.838 184.315 323.838 184.315Z" fill="#E3B5AA"/>
<path id="Vector_7" d="M314.428 184.631C309.089 183.654 306.352 199.562 318.062 200.087L315.654 194.537L317.914 189.919L314.428 184.631Z" fill="#D78F97"/>
<path id="Vector_8" d="M319.813 202.268C312.987 194.993 317.913 189.919 317.913 189.919C317.913 189.919 311.417 176.595 308.813 186.807" stroke="#C87E84" stroke-width="0.5" stroke-miterlimit="10"/>
</g>
</g>
<path id="Vector_9" d="M396.749 218.182V238.993C380.691 260.753 352.063 253.678 352.063 253.678L352.564 218.181H396.749V218.182Z" fill="#C87E84"/>
<path id="Vector_10" d="M374.405 242.029C347.729 242.029 326.105 220.404 326.105 193.729V158.433C326.105 140.416 340.711 125.81 358.728 125.81H390.083C408.1 125.81 422.706 140.416 422.706 158.433V193.729C422.705 220.404 401.081 242.029 374.405 242.029Z" fill="#E3B5AA"/>
<path id="Vector_11" d="M381.837 200.043C381.837 204.147 378.51 207.474 374.406 207.474C370.302 207.474 366.975 204.147 366.975 200.043" stroke="#B83D5D" stroke-miterlimit="10"/>
<path id="Vector_12" d="M331.208 127.97C331.208 127.97 322.748 113.947 333.344 101.583C333.344 101.583 340.957 115.679 331.208 127.97Z" fill="#B83D5D"/>
<path id="Vector_13" d="M335.505 124.64C335.505 124.64 323.725 136.017 309.307 128.448C309.307 128.448 321.348 117.881 335.505 124.64Z" fill="#B83D5D"/>
<path id="Vector_14" d="M355.225 182.706C355.225 186.699 353.524 189.937 351.426 189.937C349.328 189.937 347.627 186.7 347.627 182.706C347.627 178.712 349.328 175.475 351.426 175.475C353.524 175.475 355.225 178.713 355.225 182.706Z" fill="#36364F"/>
<path id="Vector_15" d="M368.205 187.271C371.017 176.919 364.906 166.248 354.554 163.435C344.203 160.622 333.531 166.734 330.718 177.086C327.906 187.437 334.017 198.109 344.369 200.921C354.72 203.734 365.392 197.623 368.205 187.271Z" stroke="white" stroke-width="4" stroke-miterlimit="10"/>
<path id="Vector_16" d="M401.184 182.706C401.184 186.699 399.483 189.937 397.385 189.937C395.287 189.937 393.586 186.7 393.586 182.706C393.586 178.712 395.287 175.475 397.385 175.475C399.483 175.475 401.184 178.713 401.184 182.706Z" fill="#36364F"/>
<path id="Vector_17" d="M418.049 187.351C420.912 177.013 414.852 166.312 404.515 163.449C394.177 160.586 383.476 166.645 380.613 176.983C377.75 187.32 383.809 198.022 394.147 200.885C404.484 203.748 415.186 197.688 418.049 187.351Z" stroke="white" stroke-width="4" stroke-miterlimit="10"/>
<path id="Vector_18" d="M332.091 139.594C332.091 139.594 362.776 123.418 383.165 135.142C403.554 146.866 405.848 171.078 425.982 164.812C425.982 164.812 441.274 158.08 424.453 134.632C407.632 111.184 396.123 106.597 374.225 111.694C352.327 116.791 338.077 120.756 332.091 139.594Z" fill="#B83D5D"/>
<path id="Vector_19" d="M330.918 139.362C330.918 139.362 341.047 125.932 355.225 122.382C369.403 118.832 385.085 136.272 385.085 136.272C385.085 136.272 348.758 131.092 330.918 139.362Z" fill="#9A304F"/>
<path id="Vector_20" d="M326.179 156.255C326.179 156.255 329.596 181.18 326.179 196.392C326.179 196.392 321.185 157.742 326.179 156.255Z" fill="#B83D5D"/>
<path id="Vector_21" d="M422.355 156.255C422.355 156.255 418.938 181.18 422.355 196.392C422.355 196.392 427.349 157.742 422.355 156.255Z" fill="#B83D5D"/>
<path id="Vector_22" d="M360.084 154.309C354.814 151.786 345.44 149.017 336.755 155.203C335.298 156.241 335.852 158.531 337.614 158.835C340.4 159.316 344.398 159.813 348.922 159.784C352.439 159.762 356.601 158.896 359.71 158.097C361.537 157.628 361.786 155.124 360.084 154.309Z" fill="#B83D5D"/>
<path id="Vector_23" d="M410.98 154.309C405.71 151.786 396.336 149.017 387.651 155.203C386.195 156.241 386.748 158.531 388.51 158.835C391.296 159.316 395.294 159.813 399.818 159.784C403.335 159.762 407.497 158.896 410.606 158.097C412.433 157.628 412.681 155.124 410.98 154.309Z" fill="#B83D5D"/>
<g id="Group_7">
<g id="Group_8">
<path id="Vector_24" d="M390.743 217.489C390.242 218.382 389.65 219.317 388.839 220.248C386.257 223.356 381.872 226.342 374.361 226.48L374.35 226.513L373.799 226.502L373.778 226.457C366.735 226.319 362.395 223.668 359.778 220.743C358.764 219.644 357.995 218.483 357.443 217.438C356.192 215.036 355.866 213.148 355.866 213.148L392.337 213.216C392.337 213.216 392.035 215.103 390.743 217.489Z" fill="#C33E5D"/>
</g>
<path id="Vector_25" d="M390.743 217.489C390.242 218.382 389.65 219.317 388.839 220.248C380.468 216.571 370.399 215.8 359.778 220.743C358.764 219.644 357.995 218.483 357.443 217.438C356.192 215.036 355.866 213.148 355.866 213.148L392.337 213.216C392.337 213.216 392.035 215.103 390.743 217.489Z" fill="#36364F"/>
</g>
<path id="Vector_26" d="M529.431 411.846L202.471 412.186C202.471 412.186 208.571 399.426 217.351 382.516C218.001 381.266 218.671 379.986 219.351 378.686C231.341 355.816 247.471 326.926 260.061 311.256C274.561 293.216 308.821 280.356 332.091 273.326C345.651 269.236 355.471 267.126 355.471 267.126H393.031C393.031 267.126 401.851 269.016 414.311 272.706C437.561 279.576 472.321 293.676 488.441 311.256C491.981 315.116 495.311 319.786 498.431 324.966C518.271 357.936 529.431 411.846 529.431 411.846Z" fill="#EBA154"/>
<path id="Vector_27" opacity="0.5" d="M529.431 411.846L202.471 412.186C202.471 412.186 208.571 399.426 217.351 382.516C380.512 430.478 466.494 351.878 486.114 330.601C489.282 327.166 493.681 325.097 498.352 324.968L498.431 324.966C518.271 357.936 529.431 411.846 529.431 411.846Z" fill="#D9751F"/>
<path id="Vector_28" d="M369.275 185.471H379.534" stroke="white" stroke-width="4" stroke-miterlimit="10"/>
<path id="Vector_29" d="M414.31 272.702C373.837 317.233 332.091 273.331 332.091 273.331C345.652 269.233 355.474 267.122 355.474 267.122H393.032C393.032 267.122 401.852 269.018 414.31 272.702Z" fill="#E3B5AA"/>
<g id="Group_9">
<path id="Vector_30" d="M285.042 361.463V412.247" stroke="#DC831E" stroke-width="3" stroke-miterlimit="10"/>
<path id="Vector_31" d="M285.042 393.831L271.406 376.446" stroke="#DC831E" stroke-width="3" stroke-miterlimit="10"/>
</g>
<g id="Group_10">
<path id="Vector_32" d="M462.844 361.463V412.247" stroke="#DC831E" stroke-width="3" stroke-miterlimit="10"/>
<path id="Vector_33" d="M462.844 393.831L474.951 378.394" stroke="#DC831E" stroke-width="3" stroke-miterlimit="10"/>
</g>
<path id="Vector_34" d="M330.153 292.658C330.153 292.658 380.337 326.93 414.31 290.994" stroke="#DC831E" stroke-width="3" stroke-miterlimit="10"/>
<path id="x" d="M423.895 337.535L429.695 347.433L435.496 337.535H439.783L431.965 349.64L439.783 361.745H435.496L429.695 352.351L423.895 361.745H419.608L427.3 349.64L419.608 337.535H423.895Z" fill="white"/>
<path id="Vector_35" d="M330.927 118.592C342.195 71.233 455.082 76.444 434.076 168.651C427.784 196.272 381.776 105.865 342.068 128.045C339.1 129.703 335.401 129.274 332.919 126.95C330.64 124.815 330.204 121.631 330.927 118.592Z" fill="#B83D5D"/>
</g>
<g id="Group_11">
<g id="Group_12">
<path id="Vector_36" d="M392.931 411.876C392.901 411.886 392.861 411.896 392.821 411.896C392.551 411.926 392.271 411.936 391.991 411.936H173.001C170.091 411.936 167.501 410.586 165.811 408.466C164.551 406.896 163.801 404.896 163.801 402.726L163.771 402.626L129.671 306.276C127.061 298.916 132.521 291.186 140.331 291.186H282.511C287.311 291.186 291.581 294.206 293.181 298.726L329.931 402.546C329.971 402.666 329.991 402.726 329.991 402.726H392.201C397.911 402.727 398.541 411.267 392.931 411.876Z" fill="#80ABBD"/>
<path id="Vector_37" d="M229.616 349.352C233.211 359.806 229.146 370.682 220.535 373.643C211.925 376.604 202.03 370.53 198.435 360.075C194.84 349.621 198.905 338.745 207.516 335.784C216.126 332.823 226.021 338.897 229.616 349.352Z" fill="white"/>
<path id="Vector_38" d="M392.203 402.725H329.99C329.99 402.725 329.972 402.662 329.936 402.545L293.18 298.724C291.578 294.205 287.311 291.189 282.513 291.189H277.76C277.76 291.189 288.382 291.882 291.038 301.388C293.694 310.885 329.99 411.735 329.99 411.735L332.673 411.933H391.988C392.276 411.933 392.555 411.924 392.825 411.897C398.549 411.376 397.946 402.725 392.203 402.725Z" fill="#4B7195"/>
</g>
<path id="Vector_39" opacity="0.4" d="M392.931 411.876C392.901 411.886 392.861 411.896 392.821 411.896C392.551 411.926 392.271 411.936 391.991 411.936H173.001C170.091 411.936 167.501 410.586 165.811 408.466C295.251 419.586 282.511 291.186 282.511 291.186C287.311 291.186 291.581 294.206 293.181 298.726L329.931 402.546C329.971 402.666 329.991 402.726 329.991 402.726H391.221C391.881 405.757 392.461 408.806 392.931 411.876Z" fill="#5A93A0"/>
</g>
<g id="Group_13">
<g id="Group_14">
<g id="Group_15">
<g id="Group_16">
<path id="Vector_40" d="M132.533 348.331V351.554C126.707 352.22 125.282 357.148 125.282 363.144V365.127C125.282 371.124 126.708 376.051 132.533 376.717V379.924H21.1429C16.5719 379.924 12.8689 376.221 12.8689 371.65V356.62C12.8689 352.049 16.5719 348.33 21.1429 348.33H132.533V348.331Z" fill="#4B7195"/>
<path id="Vector_41" d="M130.798 373.417C131.464 374.998 130.24 376.717 128.536 376.717L22.0889 376.794V351.476L128.536 351.553C129.156 351.553 129.714 351.785 130.132 352.157C130.876 352.777 131.216 353.846 130.798 354.853C129.915 356.96 129.946 359.889 129.946 363.142V365.125C129.945 368.381 129.914 371.31 130.798 373.417Z" fill="white"/>
<path id="Vector_42" opacity="0.4" d="M130.131 352.159C128.086 352.267 34.0189 357.133 27.5729 366.274C25.8219 368.753 23.8389 370.132 22.0879 370.411V351.477L128.535 351.554C129.155 351.554 129.713 351.787 130.131 352.159Z" fill="#A3D5E6"/>
</g>
<path id="Vector_43" d="M27.5729 379.931H18.2129C15.2619 379.931 12.8689 377.539 12.8689 374.587V353.682C12.8689 350.731 15.2609 348.338 18.2129 348.338H27.5729V379.931Z" fill="#4B7195"/>
<path id="Vector_44" opacity="0.4" d="M130.798 373.417C131.464 374.997 130.24 376.717 128.536 376.717L107.286 376.733C124.167 374.813 123.112 360.944 123.112 360.944C123.298 360.278 109.772 352.143 110.005 351.539L128.536 351.555C129.156 351.555 129.714 351.787 130.132 352.159C130.876 352.779 131.216 353.848 130.798 354.855C129.915 356.962 129.946 359.891 129.946 363.145V365.128C129.945 368.381 129.914 371.31 130.798 373.417Z" fill="#A3D5E6"/>
</g>
<g id="Group_17">
<path id="Vector_45" opacity="0.4" d="M129.945 362.288H27.7539V364.57H129.945V362.288Z" fill="#A3D5E6"/>
<path id="Vector_46" opacity="0.4" d="M129.945 357.149H27.7539V359.431H129.945V357.149Z" fill="#A3D5E6"/>
<path id="Vector_47" opacity="0.4" d="M129.945 368.825H27.7539V371.107H129.945V368.825Z" fill="#A3D5E6"/>
</g>
<path id="Vector_48" d="M97.0289 372.068L91.5959 366.649L86.1619 372.068V357.149H97.0289V372.068Z" fill="#C33E5D"/>
</g>
<g id="Group_18">
<g id="Group_19">
<g id="Group_20">
<path id="Vector_49" d="M144.448 379.817V383.04C138.622 383.706 137.197 388.633 137.197 394.63V396.613C137.197 402.609 138.623 407.537 144.448 408.203V411.41H33.0579C28.4869 411.41 24.7839 407.707 24.7839 403.136V388.106C24.7839 383.535 28.4869 379.817 33.0579 379.817H144.448Z" fill="#C33E5D"/>
<path id="Vector_50" d="M142.712 404.903C143.378 406.483 142.154 408.203 140.45 408.203L34.0029 408.28V382.962L140.45 383.04C141.07 383.04 141.628 383.272 142.046 383.644C142.79 384.264 143.131 385.333 142.712 386.34C141.829 388.447 141.86 391.376 141.86 394.629V396.612C141.86 399.867 141.829 402.796 142.712 404.903Z" fill="white"/>
<path id="Vector_51" opacity="0.4" d="M142.046 383.645C140.001 383.753 45.9339 388.619 39.4879 397.761C37.7369 400.24 35.7539 401.619 34.0029 401.898V382.964L140.45 383.042C141.07 383.04 141.628 383.273 142.046 383.645Z" fill="#A3D5E6"/>
</g>
<path id="Vector_52" d="M39.4879 411.417H30.1279C27.1769 411.417 24.7839 409.025 24.7839 406.073V385.168C24.7839 382.217 27.1759 379.824 30.1279 379.824H39.4879V411.417Z" fill="#C33E5D"/>
<path id="Vector_53" opacity="0.4" d="M142.712 404.903C143.378 406.484 142.154 408.203 140.45 408.203L119.2 408.219C136.081 406.299 135.026 392.43 135.026 392.43C135.212 391.764 121.686 383.629 121.919 383.025L140.45 383.041C141.07 383.041 141.628 383.273 142.046 383.645C142.79 384.265 143.131 385.334 142.712 386.341C141.829 388.448 141.86 391.377 141.86 394.63V396.613C141.86 399.867 141.829 402.796 142.712 404.903Z" fill="#A3D5E6"/>
</g>
<g id="Group_21">
<path id="Vector_54" opacity="0.4" d="M141.86 393.774H39.6689V396.056H141.86V393.774Z" fill="#A3D5E6"/>
<path id="Vector_55" opacity="0.4" d="M141.86 388.635H39.6689V390.917H141.86V388.635Z" fill="#A3D5E6"/>
<path id="Vector_56" opacity="0.4" d="M141.86 400.311H39.6689V402.593H141.86V400.311Z" fill="#A3D5E6"/>
</g>
<path id="Vector_57" d="M130.682 405.539L124.941 399.813L119.2 405.539V389.776H130.682V405.539Z" fill="#C33E5D"/>
</g>
</g>
<g id="Group_22">
<path id="Vector_58" d="M683.851 425.137V427.447C683.851 434.507 678.121 440.227 671.061 440.227H17.021C11.071 440.227 6.07096 436.167 4.64096 430.677C4.64096 430.667 4.64096 430.657 4.63096 430.647C4.37096 429.617 4.23096 428.547 4.23096 427.447V425.137C4.23096 418.077 9.95096 412.357 17.021 412.357H671.061C678.121 412.357 683.851 418.077 683.851 425.137Z" fill="#47547C"/>
<path id="Vector_59" opacity="0.5" d="M683.851 425.137V427.447C683.851 434.507 678.121 440.227 671.061 440.227H17.021C11.071 440.227 6.07096 436.167 4.64096 430.677C4.64096 430.667 4.64096 430.657 4.63096 430.647C4.36096 428.597 4.23096 427.447 4.23096 427.447C370.985 440.227 671.061 412.357 671.061 412.357C678.121 412.357 683.851 418.077 683.851 425.137Z" fill="#2B2B3F"/>
</g>
<g id="Group_23">
<path id="Vector_60" d="M667.54 74.731C667.54 74.648 667.551 74.575 667.551 74.492C667.551 74.409 667.54 74.336 667.54 74.263C668.737 73.712 669.944 73.077 671.131 72.307C672.4 71.433 673.691 70.423 674.888 69.268L674.628 68.248C674.378 67.093 673.931 65.979 673.525 64.866C673.296 64.325 673.025 63.794 672.765 63.263C672.526 62.711 672.234 62.201 671.912 61.702L671.371 60.807C669.737 60.817 668.082 61.026 666.573 61.306C665.21 61.587 663.888 61.993 662.66 62.461L662.327 62.128C662.785 60.889 663.201 59.578 663.472 58.215C663.763 56.706 663.971 55.051 663.982 53.417L663.087 52.876C662.587 52.553 662.067 52.262 661.526 52.023C660.995 51.763 660.464 51.492 659.913 51.263C658.8 50.857 657.696 50.41 656.541 50.16L655.521 49.9C654.366 51.097 653.356 52.377 652.482 53.657C651.712 54.833 651.077 56.04 650.526 57.247C650.453 57.247 650.37 57.226 650.297 57.226C650.214 57.226 650.14 57.247 650.058 57.247C649.517 56.04 648.871 54.833 648.101 53.657C647.238 52.377 646.218 51.097 645.073 49.9L644.053 50.16C642.887 50.41 641.784 50.857 640.671 51.263C640.13 51.492 639.599 51.763 639.058 52.023C638.517 52.262 638.007 52.554 637.497 52.876L636.602 53.417C636.623 55.051 636.831 56.706 637.112 58.215C637.393 59.578 637.799 60.889 638.267 62.128C638.153 62.242 638.038 62.346 637.934 62.461C636.695 61.993 635.384 61.587 634.021 61.306C632.512 61.025 630.847 60.817 629.223 60.807L628.671 61.702C628.359 62.202 628.067 62.712 627.818 63.263C627.568 63.794 627.298 64.324 627.068 64.866C626.652 65.98 626.215 67.093 625.965 68.248L625.705 69.268C626.902 70.423 628.182 71.433 629.462 72.307C630.638 73.077 631.845 73.712 633.042 74.263C633.042 74.336 633.032 74.409 633.032 74.492C633.032 74.575 633.042 74.648 633.042 74.731C631.845 75.272 630.638 75.918 629.462 76.688C628.182 77.552 626.902 78.571 625.705 79.716L625.965 80.736C626.215 81.891 626.652 83.005 627.068 84.118C627.297 84.659 627.568 85.19 627.818 85.731C628.068 86.272 628.359 86.782 628.671 87.282L629.223 88.177C630.847 88.167 632.512 87.958 634.021 87.677C635.384 87.396 636.695 86.99 637.934 86.522C638.038 86.636 638.153 86.751 638.267 86.855C637.799 88.093 637.392 89.405 637.112 90.768C636.831 92.277 636.623 93.942 636.602 95.566L637.497 96.117C638.007 96.429 638.517 96.721 639.058 96.96C639.599 97.22 640.13 97.491 640.671 97.72C641.784 98.136 642.888 98.573 644.053 98.823L645.073 99.083C646.218 97.886 647.238 96.606 648.101 95.326C648.872 94.15 649.517 92.943 650.058 91.736C650.141 91.746 650.214 91.757 650.297 91.757C650.37 91.757 650.453 91.747 650.526 91.736C651.078 92.943 651.713 94.151 652.482 95.326C653.357 96.606 654.366 97.886 655.521 99.083L656.541 98.823C657.696 98.573 658.799 98.136 659.913 97.72C660.465 97.491 660.995 97.22 661.526 96.96C662.067 96.721 662.588 96.429 663.087 96.117L663.982 95.566C663.971 93.942 663.763 92.277 663.472 90.768C663.201 89.405 662.785 88.093 662.327 86.855C662.441 86.751 662.546 86.636 662.66 86.522C663.888 86.99 665.21 87.396 666.573 87.677C668.082 87.958 669.737 88.166 671.371 88.177L671.912 87.282C672.235 86.782 672.526 86.273 672.765 85.731C673.025 85.19 673.296 84.659 673.525 84.118C673.931 83.005 674.378 81.891 674.628 80.736L674.888 79.716C673.691 78.571 672.401 77.551 671.131 76.688C669.944 75.917 668.737 75.272 667.54 74.731ZM650.295 82.744C645.737 82.744 642.042 79.049 642.042 74.491C642.042 69.933 645.737 66.238 650.295 66.238C654.853 66.238 658.547 69.933 658.547 74.491C658.548 79.05 654.853 82.744 650.295 82.744Z" fill="#EBA154"/>
<path id="Vector_61" d="M626.638 87.229H570.951V142.071H586.414" stroke="#FD783D" stroke-miterlimit="10" stroke-dasharray="4 4"/>
<g id="Group_24">
<path id="Vector_62" d="M618.354 171.424H587.739V176.895H618.354V171.424Z" fill="white"/>
<path id="Vector_63" d="M634.806 181.547H587.739V187.019H634.806V181.547Z" fill="white"/>
<path id="Vector_64" d="M603.77 191.67H587.739V197.142H603.77V191.67Z" fill="white"/>
<path id="Vector_65" d="M626.344 191.67H610.313V197.142H626.344V191.67Z" fill="#EBA154"/>
<path id="Vector_66" d="M655.101 191.67H632.08V197.142H655.101V191.67Z" fill="#EBA154"/>
<path id="Vector_67" d="M655.101 181.547H641.122V187.019H655.101V181.547Z" fill="#EBA154"/>
<path id="Vector_68" d="M655.101 171.424H624.486V176.895H655.101V171.424Z" fill="#EBA154"/>
</g>
<path id="Vector_69" d="M666.316 135.991H665.295V196.975H666.316V135.991Z" fill="white"/>
</g>
<g id="Group_25">
<path id="Vector_70" d="M619.695 138.232H588.214V143.858H619.695V138.232Z" fill="white"/>
<path id="Vector_71" d="M636.614 148.641H588.214V154.268H636.614V148.641Z" fill="white"/>
<path id="Vector_72" d="M604.699 159.05H588.214V164.676H604.699V159.05Z" fill="white"/>
<path id="Vector_73" d="M627.912 159.05H611.427V164.676H627.912V159.05Z" fill="#EBA154"/>
<path id="Vector_74" d="M657.483 159.05H633.811V164.676H657.483V159.05Z" fill="#EBA154"/>
<path id="Vector_75" d="M657.483 148.641H643.108V154.268H657.483V148.641Z" fill="#EBA154"/>
<path id="Vector_76" d="M657.482 138.232H626.001V143.858H657.482V138.232Z" fill="#EBA154"/>
</g>
<g id="Group_26">
<g id="Group_27">
<path id="Vector_77" d="M548.705 33.371H458.114V211.391H548.705V33.371Z" fill="#49496B"/>
<path id="Vector_78" d="M536.45 71.2329H468.434V78.4569H536.45V71.2329Z" fill="white"/>
<path id="Vector_79" d="M513.45 87.229H468.434V94.453H513.45V87.229Z" fill="white"/>
<path id="Vector_80" d="M536.45 87.229H520.136V94.453H536.45V87.229Z" fill="#EBA154"/>
<path id="Vector_81" d="M536.45 103.225H494.301V110.449H536.45V103.225Z" fill="#EBA154"/>
<path id="Vector_82" d="M488.174 103.225H468.434V110.449H488.174V103.225Z" fill="white"/>
<path id="Vector_83" d="M504.386 119.221H468.434V126.445H504.386V119.221Z" fill="white"/>
<path id="Vector_84" d="M536.449 119.221H509.923V126.445H536.449V119.221Z" fill="#EBA154"/>
<path id="Vector_85" d="M536.449 135.217H488.173V142.441H536.449V135.217Z" fill="#EBA154"/>
<path id="Vector_86" d="M483.027 135.217H468.434V142.441H483.027V135.217Z" fill="white"/>
<path id="Vector_87" d="M497.62 151.213H468.434V158.437H497.62V151.213Z" fill="white"/>
<path id="Vector_88" d="M536.45 151.213H502.442V158.437H536.45V151.213Z" fill="#EBA154"/>
<g id="Group_28">
<g id="Group_29">
<path id="Vector_89" d="M534.441 193.844V195.877L526.996 198.708V196.753L532.204 194.86L526.996 192.952V191.013L534.441 193.844Z" fill="#EBA154"/>
</g>
<g id="Group_30">
<path id="Vector_90" d="M513.276 191.013V192.952L508.068 194.86L513.276 196.753V198.708L505.832 195.877V193.844L513.276 191.013Z" fill="#EBA154"/>
</g>
<g id="Group_31">
<path id="Vector_91" d="M522.076 185.533H524.405L518.876 201.315H516.548L522.076 185.533Z" fill="#EBA154"/>
</g>
</g>
<g id="Group_32">
<g id="Group_33">
<path id="Vector_92" d="M500.258 54.9149V57.5799L490.502 61.2899V58.7279L497.327 56.2479L490.502 53.7479V51.2059L500.258 54.9149Z" fill="#EBA154"/>
</g>
<g id="Group_34">
<path id="Vector_93" d="M482.318 51.205V53.747L475.493 56.247L482.318 58.727V61.289L472.562 57.579V54.914L482.318 51.205Z" fill="#EBA154"/>
</g>
</g>
</g>
<path id="HTML" d="M460.324 18.4398V5.03858H461.947V11.0063H469.092V5.03858H470.715V18.4398H469.092V12.4459H461.947V18.4398H460.324ZM473.231 6.47817V5.03858H483.282V6.47817H479.068V18.4398H477.445V6.47817H473.231ZM485.787 5.03858H487.724L492.278 16.1627H492.435L496.989 5.03858H498.926V18.4398H497.408V8.25802H497.277L493.089 18.4398H491.624L487.436 8.25802H487.305V18.4398H485.787V5.03858ZM502.18 18.4398V5.03858H503.803V17.0002H510.032V18.4398H502.18Z" fill="white"/>
</g>
<g id="Group_35">
<g id="Group_36">
<g id="Group_37">
<path id="Vector_94" d="M38.918 215.746C37.037 213.902 34.866 212.411 32.511 211.328C32.469 211.305 32.426 211.286 32.382 211.268C29.063 209.764 25.399 209.052 21.699 209.256C19.168 209.39 16.622 209.96 14.162 210.993C14.01 211.058 13.855 211.124 13.704 211.191C9.29295 213.158 5.81296 216.366 3.49696 220.225C-0.207045 226.38 -0.949046 234.187 2.19395 241.233C7.30295 252.688 20.781 257.852 32.236 252.743C42.737 248.06 47.95 236.346 44.812 225.604C44.528 224.625 44.172 223.655 43.746 222.701C42.551 220.021 40.899 217.685 38.918 215.746ZM29.398 246.381C21.45 249.926 12.101 246.343 8.55595 238.396C6.44795 233.669 6.86195 228.447 9.21595 224.247C9.23195 224.218 9.24895 224.185 9.26795 224.151C10.873 221.328 13.355 218.975 16.541 217.554C17.138 217.288 17.745 217.062 18.356 216.878C18.419 216.856 18.484 216.837 18.548 216.818C21.705 215.893 24.979 216.009 27.957 217.005C27.97 217.006 27.981 217.01 27.993 217.014C30.544 217.872 32.871 219.377 34.711 221.423C35.786 222.615 36.695 223.996 37.383 225.539C37.811 226.499 38.133 227.477 38.357 228.464C39.999 235.659 36.386 243.264 29.398 246.381Z" fill="#64648E"/>
</g>
<path id="Vector_95" d="M32.511 211.328C34.866 212.41 37.037 213.902 38.918 215.746C40.898 217.685 42.551 220.022 43.746 222.702C44.172 223.656 44.528 224.626 44.812 225.605L38.358 228.464C38.134 227.477 37.812 226.499 37.384 225.539C36.696 223.996 35.788 222.615 34.712 221.423C32.872 219.377 30.544 217.872 27.994 217.014L27.958 217.005L32.382 211.269" fill="#EBA154"/>
<path id="Vector_96" d="M27.9938 217.013L27.9578 217.004C24.9808 216.008 21.7058 215.892 18.5488 216.817C18.4848 216.836 18.4198 216.856 18.3568 216.877L14.1628 210.993C16.6228 209.959 19.1688 209.39 21.6998 209.256C25.4008 209.052 29.0648 209.763 32.3828 211.268" fill="#B83D5D"/>
</g>
<g id="Group_38">
<g id="Group_39">
<path id="Vector_97" d="M24.7839 254.715V256.715" stroke="#FD783D" stroke-miterlimit="10"/>
<path id="Vector_98" d="M24.7839 260.542V289.248" stroke="#FD783D" stroke-miterlimit="10" stroke-dasharray="3.83 3.83"/>
<path id="Vector_99" d="M24.7839 291.162V293.162H26.7839" stroke="#FD783D" stroke-miterlimit="10"/>
<path id="Vector_100" d="M30.8999 293.162H86.4599" stroke="#FD783D" stroke-miterlimit="10" stroke-dasharray="4.12 4.12"/>
<path id="Vector_101" d="M88.5178 293.162H90.5178V291.162" stroke="#FD783D" stroke-miterlimit="10"/>
<path id="Vector_102" d="M90.5178 287.267V258.056" stroke="#FD783D" stroke-miterlimit="10" stroke-dasharray="3.89 3.89"/>
<path id="Vector_103" d="M90.5178 256.109V254.109" stroke="#FD783D" stroke-miterlimit="10"/>
</g>
</g>
<g id="Group_40">
<path id="Vector_104" d="M259.376 22.297H66.5278V252.215H259.376V22.297Z" fill="#49496B"/>
<path id="Vector_105" d="M259.376 11.097H66.5278V40.278H259.376V11.097Z" fill="#64648E"/>
<g id="Group_41">
<g id="Group_42">
<path id="Vector_106" d="M237.06 236.4V238.294L230.125 240.931V239.11L234.977 237.347L230.125 235.57V233.763L237.06 236.4Z" fill="#EBA154"/>
</g>
<g id="Group_43">
<path id="Vector_107" d="M217.343 233.763V235.57L212.491 237.347L217.343 239.11V240.931L210.408 238.294V236.4L217.343 233.763Z" fill="#EBA154"/>
</g>
<path id="/" d="M226.117 229.302L222.458 242.895H221.261L224.92 229.302H226.117Z" fill="#EBA154"/>
</g>
<g id="Group_44">
<g id="Group_45">
<path id="Vector_108" d="M112.225 58.881V61.243L103.577 64.531V62.26L109.627 60.062L103.577 57.846V55.593L112.225 58.881Z" fill="#EBA154"/>
</g>
<g id="Group_46">
<path id="Vector_109" d="M96.3218 55.592V57.845L90.2718 60.061L96.3218 62.259V64.53L87.6738 61.242V58.88L96.3218 55.592Z" fill="#EBA154"/>
</g>
</g>
<path id="WEB DEVELOPING" d="M81.2768 32.0289L78.5237 21.9607H79.7626L81.8667 30.1608H81.965L84.1084 21.9607H85.485L87.6284 30.1608H87.7267L89.8308 21.9607H91.0697L88.3166 32.0289H87.0581L84.836 24.0058H84.7574L82.5353 32.0289H81.2768ZM92.5888 32.0289V21.9607H98.6651V23.0423H93.808V26.4442H98.3504V27.5258H93.808V30.9474H98.7437V32.0289H92.5888ZM100.863 32.0289V21.9607H104.383C105.084 21.9607 105.662 22.082 106.118 22.3245C106.573 22.5638 106.913 22.8866 107.136 23.293C107.358 23.6961 107.47 24.1435 107.47 24.6351C107.47 25.0677 107.393 25.4249 107.239 25.7068C107.088 25.9887 106.888 26.2115 106.639 26.3754C106.393 26.5393 106.126 26.6605 105.838 26.7392V26.8375C106.146 26.8572 106.455 26.9653 106.767 27.162C107.078 27.3586 107.339 27.6405 107.549 28.0075C107.758 28.3746 107.863 28.8236 107.863 29.3546C107.863 29.8593 107.748 30.3132 107.519 30.7163C107.29 31.1194 106.927 31.439 106.433 31.675C105.938 31.9109 105.294 32.0289 104.501 32.0289H100.863ZM102.082 30.9474H104.501C105.297 30.9474 105.862 30.7933 106.197 30.4853C106.534 30.1739 106.703 29.797 106.703 29.3546C106.703 29.0137 106.616 28.6991 106.442 28.4107C106.269 28.119 106.021 27.8863 105.7 27.7126C105.379 27.5356 104.999 27.4471 104.56 27.4471H102.082V30.9474ZM102.082 26.3852H104.343C104.71 26.3852 105.041 26.3131 105.336 26.1689C105.635 26.0247 105.87 25.8215 106.044 25.5593C106.221 25.2971 106.31 24.989 106.31 24.6351C106.31 24.1926 106.156 23.8174 105.848 23.5093C105.539 23.1979 105.051 23.0423 104.383 23.0423H102.082V26.3852ZM116.867 32.0289H113.76V21.9607H117.005C117.981 21.9607 118.817 22.1623 119.512 22.5654C120.207 22.9652 120.739 23.5404 121.11 24.291C121.48 25.0382 121.665 25.9329 121.665 26.9752C121.665 28.0239 121.478 28.9269 121.105 29.6839C120.731 30.4377 120.187 31.0178 119.473 31.4242C118.758 31.8274 117.89 32.0289 116.867 32.0289ZM114.979 30.9474H116.788C117.621 30.9474 118.311 30.7868 118.858 30.4656C119.405 30.1444 119.813 29.6872 120.082 29.094C120.351 28.5008 120.485 27.7945 120.485 26.9752C120.485 26.1624 120.353 25.4626 120.087 24.876C119.822 24.286 119.425 23.8338 118.897 23.5191C118.37 23.2012 117.713 23.0423 116.926 23.0423H114.979V30.9474ZM123.71 32.0289V21.9607H129.787V23.0423H124.929V26.4442H129.472V27.5258H124.929V30.9474H129.865V32.0289H123.71ZM132.397 21.9607L135.386 30.4361H135.504L138.493 21.9607H139.771L136.074 32.0289H134.816L131.119 21.9607H132.397ZM141.339 32.0289V21.9607H147.416V23.0423H142.559V26.4442H147.101V27.5258H142.559V30.9474H147.494V32.0289H141.339ZM149.613 32.0289V21.9607H150.833V30.9474H155.513V32.0289H149.613ZM165.503 26.9948C165.503 28.0567 165.312 28.9744 164.928 29.7478C164.545 30.5213 164.019 31.1178 163.35 31.5373C162.682 31.9568 161.918 32.1666 161.059 32.1666C160.201 32.1666 159.437 31.9568 158.768 31.5373C158.1 31.1178 157.574 30.5213 157.19 29.7478C156.807 28.9744 156.615 28.0567 156.615 26.9948C156.615 25.9329 156.807 25.0153 157.19 24.2418C157.574 23.4683 158.1 22.8718 158.768 22.4523C159.437 22.0328 160.201 21.8231 161.059 21.8231C161.918 21.8231 162.682 22.0328 163.35 22.4523C164.019 22.8718 164.545 23.4683 164.928 24.2418C165.312 25.0153 165.503 25.9329 165.503 26.9948ZM164.324 26.9948C164.324 26.123 164.178 25.3872 163.886 24.7875C163.598 24.1877 163.206 23.7338 162.711 23.4257C162.219 23.1176 161.669 22.9636 161.059 22.9636C160.45 22.9636 159.897 23.1176 159.403 23.4257C158.911 23.7338 158.519 24.1877 158.228 24.7875C157.939 25.3872 157.795 26.123 157.795 26.9948C157.795 27.8666 157.939 28.6024 158.228 29.2022C158.519 29.8019 158.911 30.2558 159.403 30.5639C159.897 30.872 160.45 31.026 161.059 31.026C161.669 31.026 162.219 30.872 162.711 30.5639C163.206 30.2558 163.598 29.8019 163.886 29.2022C164.178 28.6024 164.324 27.8666 164.324 26.9948ZM167.553 32.0289V21.9607H170.955C171.745 21.9607 172.391 22.1033 172.892 22.3884C173.397 22.6703 173.771 23.0521 174.013 23.5339C174.256 24.0157 174.377 24.5531 174.377 25.1464C174.377 25.7396 174.256 26.2787 174.013 26.7638C173.774 27.2488 173.404 27.6356 172.902 27.924C172.401 28.2091 171.758 28.3517 170.975 28.3517H168.537V27.2701H170.936C171.477 27.2701 171.911 27.1767 172.239 26.9899C172.566 26.8031 172.804 26.5507 172.951 26.2328C173.102 25.9116 173.178 25.5495 173.178 25.1464C173.178 24.7432 173.102 24.3827 172.951 24.0648C172.804 23.7469 172.565 23.4978 172.234 23.3176C171.903 23.134 171.463 23.0423 170.916 23.0423H168.773V32.0289H167.553ZM177.56 21.9607V32.0289H176.341V21.9607H177.56ZM187.989 21.9607V32.0289H186.809L181.322 24.1238H181.224V32.0289H180.005V21.9607H181.185L186.691 29.8855H186.789V21.9607H187.989ZM197.311 25.107C197.203 24.776 197.06 24.4794 196.883 24.2172C196.709 23.9517 196.501 23.7256 196.259 23.5388C196.019 23.352 195.747 23.2094 195.443 23.1111C195.138 23.0128 194.804 22.9636 194.44 22.9636C193.843 22.9636 193.301 23.1176 192.813 23.4257C192.324 23.7338 191.936 24.1877 191.647 24.7875C191.359 25.3872 191.215 26.123 191.215 26.9948C191.215 27.8666 191.361 28.6024 191.652 29.2022C191.944 29.8019 192.339 30.2558 192.837 30.5639C193.335 30.872 193.896 31.026 194.518 31.026C195.095 31.026 195.603 30.9031 196.042 30.6573C196.485 30.4082 196.829 30.0576 197.075 29.6053C197.324 29.1497 197.448 28.6139 197.448 27.9977L197.822 28.0764H194.794V26.9948H198.628V28.0764C198.628 28.9056 198.451 29.6266 198.097 30.2395C197.747 30.8523 197.262 31.3276 196.642 31.6651C196.026 31.9994 195.318 32.1666 194.518 32.1666C193.627 32.1666 192.844 31.9568 192.168 31.5373C191.497 31.1178 190.972 30.5213 190.595 29.7478C190.222 28.9744 190.035 28.0567 190.035 26.9948C190.035 26.1984 190.141 25.4823 190.354 24.8465C190.571 24.2074 190.876 23.6633 191.269 23.2143C191.662 22.7653 192.128 22.4212 192.665 22.1819C193.203 21.9427 193.794 21.8231 194.44 21.8231C194.971 21.8231 195.466 21.9034 195.924 22.064C196.387 22.2213 196.798 22.4458 197.158 22.7375C197.522 23.0259 197.825 23.3716 198.068 23.7748C198.31 24.1746 198.478 24.6187 198.569 25.107H197.311Z" fill="white"/>
<g id="Group_47">
<g id="Group_48">
<path id="Vector_110" d="M156.555 78.5541H99.8679V88.9351H156.555V78.5541Z" fill="#54B3CD"/>
<path id="Vector_111" d="M192.886 78.5541H164.542V88.9351H192.886V78.5541Z" fill="#EBA154"/>
<path id="Vector_112" d="M238.452 78.5541H199.414V88.9351H238.452V78.5541Z" fill="white"/>
<path id="Vector_113" d="M126.325 97.0881H99.8679V107.469H126.325V97.0881Z" fill="#54B3CD"/>
<path id="Vector_114" d="M178.714 97.0881H133.524V107.469H178.714V97.0881Z" fill="#EBA154"/>
<path id="Vector_115" d="M238.452 97.0881H186.078V107.469H238.452V97.0881Z" fill="white"/>
<path id="Vector_116" d="M134.694 115.622H99.8679V126.003H134.694V115.622Z" fill="#54B3CD"/>
<path id="Vector_117" d="M205.875 115.622H140.363V126.003H205.875V115.622Z" fill="#EBA154"/>
<path id="Vector_118" d="M238.452 115.622H212.895V126.003H238.452V115.622Z" fill="white"/>
<path id="Vector_119" d="M143.783 134.156H99.8679V144.537H143.783V134.156Z" fill="#54B3CD"/>
<path id="Vector_120" d="M192.886 134.156H150.262V144.537H192.886V134.156Z" fill="#EBA154"/>
<path id="Vector_121" d="M238.452 134.156H199.414V144.537H238.452V134.156Z" fill="white"/>
<path id="Vector_122" d="M119.126 152.69H99.8679V163.071H119.126V152.69Z" fill="#54B3CD"/>
<path id="Vector_123" d="M163.76 152.69H125.605V163.071H163.76V152.69Z" fill="#EBA154"/>
<path id="Vector_124" d="M238.452 152.69H169.7V163.071H238.452V152.69Z" fill="white"/>
<path id="Vector_125" d="M154.941 171.224H99.8679V181.605H154.941V171.224Z" fill="#54B3CD"/>
<path id="Vector_126" d="M178.714 171.224H161.781V181.605H178.714V171.224Z" fill="#EBA154"/>
<path id="Vector_127" d="M238.452 171.224H186.078V181.605H238.452V171.224Z" fill="white"/>
<path id="Vector_128" d="M171.574 189.758H99.8679V200.139H171.574V189.758Z" fill="#54B3CD"/>
<path id="Vector_129" d="M206.956 189.758H177.619V200.139H206.956V189.758Z" fill="#EBA154"/>
<path id="Vector_130" d="M238.452 189.758H212.895V200.139H238.452V189.758Z" fill="white"/>
<path id="Vector_131" d="M121.825 208.292H99.8679V218.673H121.825V208.292Z" fill="#54B3CD"/>
<path id="Vector_132" d="M154.941 208.292H128.211V218.673H154.941V208.292Z" fill="#EBA154"/>
<path id="Vector_133" d="M238.452 208.292H161.781V218.673H238.452V208.292Z" fill="white"/>
</g>
<path id="Vector_134" d="M248.143 78.5541H246.032V218.673H248.143V78.5541Z" fill="white"/>
<path id="Vector_135" d="M82.0409 88.9361C84.9078 88.9361 87.2319 86.612 87.2319 83.7451C87.2319 80.8782 84.9078 78.5541 82.0409 78.5541C79.1739 78.5541 76.8499 80.8782 76.8499 83.7451C76.8499 86.612 79.1739 88.9361 82.0409 88.9361Z" fill="white"/>
<path id="Vector_136" d="M82.0409 107.47C84.9078 107.47 87.2319 105.146 87.2319 102.279C87.2319 99.4122 84.9078 97.0881 82.0409 97.0881C79.1739 97.0881 76.8499 99.4122 76.8499 102.279C76.8499 105.146 79.1739 107.47 82.0409 107.47Z" fill="white"/>
<path id="Vector_137" d="M82.0409 126.004C84.9078 126.004 87.2319 123.68 87.2319 120.813C87.2319 117.946 84.9078 115.622 82.0409 115.622C79.1739 115.622 76.8499 117.946 76.8499 120.813C76.8499 123.68 79.1739 126.004 82.0409 126.004Z" fill="white"/>
<path id="Vector_138" d="M82.0409 144.537C84.9078 144.537 87.2319 142.213 87.2319 139.346C87.2319 136.479 84.9078 134.155 82.0409 134.155C79.1739 134.155 76.8499 136.479 76.8499 139.346C76.8499 142.213 79.1739 144.537 82.0409 144.537Z" fill="white"/>
<path id="Vector_139" d="M82.0409 163.071C84.9078 163.071 87.2319 160.747 87.2319 157.88C87.2319 155.013 84.9078 152.689 82.0409 152.689C79.1739 152.689 76.8499 155.013 76.8499 157.88C76.8499 160.747 79.1739 163.071 82.0409 163.071Z" fill="white"/>
<path id="Vector_140" d="M82.0409 181.606C84.9078 181.606 87.2319 179.282 87.2319 176.415C87.2319 173.548 84.9078 171.224 82.0409 171.224C79.1739 171.224 76.8499 173.548 76.8499 176.415C76.8499 179.282 79.1739 181.606 82.0409 181.606Z" fill="white"/>
<path id="Vector_141" d="M82.0409 200.14C84.9078 200.14 87.2319 197.816 87.2319 194.949C87.2319 192.082 84.9078 189.758 82.0409 189.758C79.1739 189.758 76.8499 192.082 76.8499 194.949C76.8499 197.816 79.1739 200.14 82.0409 200.14Z" fill="white"/>
<path id="Vector_142" d="M82.0409 218.674C84.9078 218.674 87.2319 216.35 87.2319 213.483C87.2319 210.616 84.9078 208.292 82.0409 208.292C79.1739 208.292 76.8499 210.616 76.8499 213.483C76.8499 216.35 79.1739 218.674 82.0409 218.674Z" fill="white"/>
</g>
<path id="Vector_143" d="M250.786 27.2971C250.786 30.2211 248.416 32.5911 245.492 32.5911C242.568 32.5911 240.198 30.2211 240.198 27.2971C240.198 24.3731 242.568 22.0031 245.492 22.0031C248.415 22.0031 250.786 24.3731 250.786 27.2971Z" fill="#B83D5D"/>
</g>
<path id="Vector_144" d="M237.699 27.1911C237.699 30.1371 235.311 32.5251 232.365 32.5251C229.419 32.5251 227.031 30.1371 227.031 27.1911C227.031 24.2451 229.419 21.8571 232.365 21.8571C235.311 21.8561 237.699 24.2441 237.699 27.1911Z" fill="white"/>
</g>
<g id="Group_49">
<path id="Vector_145" d="M303.724 49.332H285.042V54.566H303.724V49.332Z" fill="#47547C"/>
<path id="Vector_146" d="M342.195 40.012H285.042V45.246H342.195V40.012Z" fill="#64648E"/>
<g id="Group_50">
<g id="Group_51">
<path id="Vector_147" d="M318.062 55.563V57.563" stroke="#FD783D" stroke-miterlimit="10"/>
<path id="Vector_148" d="M318.062 60.939V72.756" stroke="#FD783D" stroke-miterlimit="10" stroke-dasharray="3.38 3.38"/>
<path id="Vector_149" d="M318.062 74.444V76.444H320.062" stroke="#FD783D" stroke-miterlimit="10"/>
<path id="Vector_150" d="M323.871 76.444H382.912" stroke="#FD783D" stroke-miterlimit="10" stroke-dasharray="3.81 3.81"/>
<path id="Vector_151" d="M384.816 76.444H386.816V74.444" stroke="#FD783D" stroke-miterlimit="10"/>
<path id="Vector_152" d="M386.816 70.387V64.302" stroke="#FD783D" stroke-miterlimit="10" stroke-dasharray="4.06 4.06"/>
<path id="Vector_153" d="M386.816 62.2729V60.2729" stroke="#FD783D" stroke-miterlimit="10"/>
</g>
</g>
<path id="CSS" d="M297.448 16.5503H295.826C295.73 16.0835 295.562 15.6735 295.322 15.3201C295.086 14.9668 294.798 14.6701 294.458 14.4302C294.122 14.1859 293.749 14.0027 293.339 13.8805C292.929 13.7584 292.502 13.6973 292.057 13.6973C291.245 13.6973 290.51 13.9024 289.851 14.3124C289.197 14.7225 288.676 15.3267 288.287 16.125C287.904 16.9233 287.712 17.9027 287.712 19.0631C287.712 20.2234 287.904 21.2028 288.287 22.0011C288.676 22.7994 289.197 23.4036 289.851 23.8137C290.51 24.2238 291.245 24.4288 292.057 24.4288C292.502 24.4288 292.929 24.3677 293.339 24.2456C293.749 24.1234 294.122 23.9424 294.458 23.7024C294.798 23.4582 295.086 23.1593 295.322 22.806C295.562 22.4483 295.73 22.0382 295.826 21.5758H297.448C297.326 22.2607 297.104 22.8736 296.781 23.4145C296.458 23.9555 296.057 24.4157 295.577 24.7952C295.097 25.1704 294.558 25.4561 293.961 25.6524C293.367 25.8487 292.733 25.9469 292.057 25.9469C290.914 25.9469 289.897 25.6677 289.007 25.1093C288.117 24.5509 287.417 23.757 286.907 22.7275C286.396 21.6979 286.141 20.4765 286.141 19.0631C286.141 17.6496 286.396 16.4282 286.907 15.3987C287.417 14.3691 288.117 13.5752 289.007 13.0168C289.897 12.4584 290.914 12.1792 292.057 12.1792C292.733 12.1792 293.367 12.2774 293.961 12.4737C294.558 12.67 295.097 12.9579 295.577 13.3374C296.057 13.7126 296.458 14.1706 296.781 14.7116C297.104 15.2482 297.326 15.8611 297.448 16.5503ZM307.4 15.7127C307.321 15.0497 307.003 14.5349 306.444 14.1685C305.886 13.802 305.201 13.6188 304.39 13.6188C303.796 13.6188 303.277 13.7148 302.832 13.9067C302.392 14.0987 302.047 14.3626 301.798 14.6985C301.554 15.0344 301.432 15.4161 301.432 15.8436C301.432 16.2013 301.517 16.5089 301.687 16.7663C301.862 17.0193 302.084 17.2309 302.355 17.401C302.625 17.5668 302.909 17.7042 303.205 17.8132C303.502 17.9179 303.774 18.003 304.023 18.0684L305.384 18.4349C305.733 18.5265 306.121 18.653 306.549 18.8144C306.981 18.9758 307.393 19.1961 307.786 19.4753C308.183 19.7501 308.51 20.1035 308.767 20.5354C309.025 20.9672 309.153 21.4973 309.153 22.1254C309.153 22.8496 308.964 23.504 308.584 24.0885C308.209 24.6731 307.659 25.1377 306.935 25.4823C306.215 25.8269 305.341 25.9992 304.311 25.9992C303.351 25.9992 302.52 25.8444 301.818 25.5346C301.12 25.2249 300.57 24.793 300.169 24.239C299.772 23.685 299.547 23.0415 299.495 22.3087H301.17C301.214 22.8147 301.384 23.2335 301.681 23.565C301.982 23.8922 302.361 24.1365 302.819 24.2979C303.282 24.455 303.779 24.5335 304.311 24.5335C304.931 24.5335 305.487 24.4331 305.98 24.2325C306.473 24.0274 306.863 23.7439 307.151 23.3818C307.439 23.0154 307.583 22.5879 307.583 22.0993C307.583 21.6543 307.459 21.2922 307.21 21.013C306.961 20.7338 306.634 20.507 306.228 20.3325C305.823 20.158 305.384 20.0053 304.913 19.8745L303.264 19.4033C302.217 19.1023 301.388 18.6726 300.778 18.1142C300.167 17.5559 299.861 16.8252 299.861 15.9221C299.861 15.1718 300.064 14.5175 300.47 13.9591C300.88 13.3963 301.43 12.9601 302.119 12.6504C302.813 12.3363 303.587 12.1792 304.442 12.1792C305.306 12.1792 306.073 12.3341 306.745 12.6438C307.417 12.9492 307.949 13.368 308.342 13.9002C308.739 14.4324 308.948 15.0366 308.97 15.7127H307.4ZM319.15 15.7127C319.072 15.0497 318.753 14.5349 318.195 14.1685C317.636 13.802 316.952 13.6188 316.14 13.6188C315.547 13.6188 315.028 13.7148 314.583 13.9067C314.142 14.0987 313.798 14.3626 313.549 14.6985C313.305 15.0344 313.183 15.4161 313.183 15.8436C313.183 16.2013 313.268 16.5089 313.438 16.7663C313.612 17.0193 313.835 17.2309 314.105 17.401C314.376 17.5668 314.659 17.7042 314.956 17.8132C315.252 17.9179 315.525 18.003 315.774 18.0684L317.135 18.4349C317.484 18.5265 317.872 18.653 318.3 18.8144C318.731 18.9758 319.144 19.1961 319.536 19.4753C319.933 19.7501 320.26 20.1035 320.518 20.5354C320.775 20.9672 320.904 21.4973 320.904 22.1254C320.904 22.8496 320.714 23.504 320.335 24.0885C319.959 24.6731 319.41 25.1377 318.686 25.4823C317.966 25.8269 317.091 25.9992 316.062 25.9992C315.102 25.9992 314.271 25.8444 313.569 25.5346C312.871 25.2249 312.321 24.793 311.92 24.239C311.523 23.685 311.298 23.0415 311.246 22.3087H312.921C312.964 22.8147 313.135 23.2335 313.431 23.565C313.732 23.8922 314.112 24.1365 314.57 24.2979C315.032 24.455 315.529 24.5335 316.062 24.5335C316.681 24.5335 317.237 24.4331 317.73 24.2325C318.223 24.0274 318.614 23.7439 318.902 23.3818C319.19 23.0154 319.333 22.5879 319.333 22.0993C319.333 21.6543 319.209 21.2922 318.96 21.013C318.712 20.7338 318.385 20.507 317.979 20.3325C317.573 20.158 317.135 20.0053 316.664 19.8745L315.015 19.4033C313.968 19.1023 313.139 18.6726 312.528 18.1142C311.917 17.5559 311.612 16.8252 311.612 15.9221C311.612 15.1718 311.815 14.5175 312.221 13.9591C312.631 13.3963 313.18 12.9601 313.87 12.6504C314.563 12.3363 315.338 12.1792 316.193 12.1792C317.056 12.1792 317.824 12.3341 318.496 12.6438C319.168 12.9492 319.7 13.368 320.093 13.9002C320.489 14.4324 320.699 15.0366 320.721 15.7127H319.15Z" fill="white"/>
<g id="Group_52">
<g id="Group_53">
<path id="Vector_154" d="M401.967 38.956C401.773 38.276 401.523 37.603 401.232 36.944C400.4 35.085 399.255 33.462 397.882 32.116C396.578 30.84 395.066 29.806 393.435 29.057C393.407 29.036 393.372 29.022 393.345 29.015C391.042 27.967 388.503 27.475 385.936 27.614C384.181 27.711 382.412 28.107 380.706 28.821C380.602 28.87 380.491 28.911 380.387 28.96C377.328 30.327 374.914 32.546 373.311 35.224C371.313 38.54 370.557 42.542 371.341 46.455C371.563 47.586 371.917 48.702 372.402 49.798C375.947 57.748 385.298 61.327 393.24 57.782C398.089 55.618 401.315 51.303 402.286 46.454C402.778 44.02 402.695 41.453 401.967 38.956ZM391.277 53.371C385.762 55.827 379.276 53.343 376.821 47.828C376.62 47.377 376.453 46.919 376.315 46.455C375.462 43.569 375.871 40.524 377.279 38.02C377.286 37.999 377.3 37.971 377.314 37.951C378.424 35.995 380.144 34.358 382.357 33.373C382.773 33.193 383.189 33.033 383.62 32.908C383.662 32.887 383.703 32.873 383.752 32.866C385.944 32.221 388.212 32.304 390.28 32.991C390.287 32.991 390.294 32.998 390.301 32.998C392.07 33.594 393.686 34.642 394.962 36.057C395.711 36.882 396.336 37.84 396.814 38.915C397.112 39.581 397.334 40.261 397.494 40.941C397.917 42.8 397.834 44.694 397.314 46.456C396.445 49.431 394.322 52.011 391.277 53.371Z" fill="#64648E"/>
</g>
<path id="Vector_155" d="M402.286 46.455H397.312C397.832 44.693 397.915 42.799 397.492 40.94C397.332 40.26 397.11 39.58 396.812 38.914C396.333 37.839 395.709 36.881 394.96 36.056C393.684 34.641 392.067 33.593 390.299 32.997C390.292 32.997 390.285 32.99 390.278 32.99C388.211 32.303 385.942 32.22 383.75 32.865C383.702 32.872 383.66 32.886 383.618 32.907C383.188 33.032 382.772 33.191 382.355 33.372C380.142 34.357 378.422 35.994 377.312 37.95C377.298 37.971 377.284 37.999 377.277 38.019C375.869 40.523 375.459 43.568 376.313 46.454H371.339C370.555 42.541 371.311 38.539 373.309 35.223C374.911 32.545 377.326 30.326 380.385 28.959C380.489 28.91 380.6 28.869 380.704 28.82C382.411 28.106 384.179 27.71 385.934 27.613C388.501 27.474 391.039 27.967 393.343 29.014C393.371 29.021 393.405 29.035 393.433 29.056C395.063 29.805 396.575 30.839 397.88 32.115C399.254 33.461 400.398 35.084 401.23 36.943C401.521 37.602 401.771 38.275 401.965 38.955C402.695 41.453 402.778 44.02 402.286 46.455Z" fill="#B83D5D"/>
</g>
<path id="Vector_156" d="M342.196 49.332H307.468V54.566H342.196V49.332Z" fill="#64648E"/>
</g>
<g id="Group_54">
<path id="{ }" d="M15.636 24.8953V23.7323C16.6802 23.7323 17.4086 23.5135 17.8213 23.0758C18.2402 22.6382 18.4496 21.9066 18.4496 20.8812V17.8801C18.4496 17.0172 18.5309 16.2701 18.6935 15.6386C18.8623 15.0071 19.1343 14.485 19.5094 14.0723C19.8846 13.6597 20.3848 13.3533 21.01 13.1532C21.6352 12.9531 22.4074 12.8531 23.3265 12.8531V14.6913C22.6012 14.6913 22.0291 14.8039 21.6102 15.0289C21.1976 15.254 20.9037 15.6042 20.7286 16.0794C20.5598 16.5483 20.4754 17.1485 20.4754 17.8801V21.6315C20.4754 22.1192 20.4098 22.5631 20.2785 22.9633C20.1534 23.3634 19.9189 23.7073 19.5751 23.9949C19.2312 24.2826 18.7404 24.5045 18.1026 24.6608C17.4711 24.8171 16.6489 24.8953 15.636 24.8953ZM23.3265 36.8625C22.4074 36.8625 21.6352 36.7624 21.01 36.5623C20.3848 36.3623 19.8846 36.0559 19.5094 35.6432C19.1343 35.2306 18.8623 34.7085 18.6935 34.077C18.5309 33.4455 18.4496 32.6983 18.4496 31.8355V28.8343C18.4496 27.8089 18.2402 27.0774 17.8213 26.6397C17.4086 26.2021 16.6802 25.9832 15.636 25.9832V24.8203C16.6489 24.8203 17.4711 24.8984 18.1026 25.0547C18.7404 25.211 19.2312 25.433 19.5751 25.7206C19.9189 26.0082 20.1534 26.3521 20.2785 26.7523C20.4098 27.1524 20.4754 27.5963 20.4754 28.084V31.8355C20.4754 32.567 20.5598 33.1673 20.7286 33.6362C20.9037 34.1051 21.1976 34.4521 21.6102 34.6772C22.0291 34.9086 22.6012 35.0242 23.3265 35.0242V36.8625ZM15.636 25.9832V23.7323H17.8494V25.9832H15.636ZM40.248 24.8203V25.9832C39.2038 25.9832 38.4723 26.2021 38.0534 26.6397C37.6407 27.0774 37.4344 27.8089 37.4344 28.8343V31.8355C37.4344 32.6983 37.35 33.4455 37.1811 34.077C37.0186 34.7085 36.7497 35.2306 36.3746 35.6432C35.9994 36.0559 35.4992 36.3623 34.874 36.5623C34.2488 36.7624 33.4766 36.8625 32.5575 36.8625V35.0242C33.2827 35.0242 33.8517 34.9086 34.2644 34.6772C34.6833 34.4521 34.9772 34.1051 35.146 33.6362C35.321 33.1673 35.4086 32.567 35.4086 31.8355V28.084C35.4086 27.5963 35.4711 27.1524 35.5962 26.7523C35.7275 26.3521 35.965 26.0082 36.3089 25.7206C36.6528 25.433 37.1405 25.211 37.772 25.0547C38.4097 24.8984 39.2351 24.8203 40.248 24.8203ZM32.5575 12.8531C33.4766 12.8531 34.2488 12.9531 34.874 13.1532C35.4992 13.3533 35.9994 13.6597 36.3746 14.0723C36.7497 14.485 37.0186 15.0071 37.1811 15.6386C37.35 16.2701 37.4344 17.0172 37.4344 17.8801V20.8812C37.4344 21.9066 37.6407 22.6382 38.0534 23.0758C38.4723 23.5135 39.2038 23.7323 40.248 23.7323V24.8953C39.2351 24.8953 38.4097 24.8171 37.772 24.6608C37.1405 24.5045 36.6528 24.2826 36.3089 23.9949C35.965 23.7073 35.7275 23.3634 35.5962 22.9633C35.4711 22.5631 35.4086 22.1192 35.4086 21.6315V17.8801C35.4086 17.1485 35.321 16.5483 35.146 16.0794C34.9772 15.6042 34.6833 15.254 34.2644 15.0289C33.8517 14.8039 33.2827 14.6913 32.5575 14.6913V12.8531ZM40.248 23.7323V25.9832H38.0346V23.7323H40.248Z" fill="#323247"/>
<g id="Group_55">
<path id="Vector_157" d="M35.0539 62.946H14.5139V72.748H35.0539V62.946Z" fill="white"/>
<path id="Vector_158" d="M35.0539 80.0701H14.5139V89.8721H35.0539V80.0701Z" fill="white"/>
<path id="Vector_159" d="M35.0539 97.1951H14.5139V106.997H35.0539V97.1951Z" fill="#EBA154"/>
<path id="Vector_160" d="M35.0539 114.32H14.5139V124.122H35.0539V114.32Z" fill="#EBA154"/>
<path id="Vector_161" d="M35.0539 131.445H14.5139V141.247H35.0539V131.445Z" fill="#EBA154"/>
<path id="Vector_162" d="M35.0539 148.57H14.5139V158.372H35.0539V148.57Z" fill="#EBA154"/>
<path id="Vector_163" d="M35.0539 165.694H14.5139V175.496H35.0539V165.694Z" fill="#EBA154"/>
</g>
</g>
<g id="Group_56">
<path id="Vector_164" d="M615.491 255.688C615.491 255.617 615.5 255.555 615.5 255.483C615.5 255.412 615.491 255.35 615.491 255.287C616.514 254.815 617.547 254.273 618.561 253.614C619.646 252.866 620.75 252.003 621.774 251.015L621.551 250.143C621.337 249.155 620.955 248.203 620.608 247.251C620.412 246.788 620.181 246.334 619.958 245.881C619.753 245.409 619.504 244.973 619.228 244.546L618.765 243.781C617.368 243.79 615.953 243.968 614.662 244.208C613.496 244.448 612.366 244.795 611.316 245.196L611.031 244.911C611.423 243.852 611.779 242.73 612.01 241.565C612.259 240.275 612.437 238.859 612.446 237.462L611.681 236.999C611.254 236.723 610.809 236.474 610.346 236.269C609.892 236.046 609.438 235.815 608.966 235.619C608.014 235.272 607.071 234.889 606.083 234.676L605.211 234.453C604.223 235.476 603.36 236.571 602.612 237.666C601.954 238.672 601.411 239.704 600.939 240.736C600.877 240.736 600.806 240.718 600.743 240.718C600.672 240.718 600.609 240.736 600.538 240.736C600.075 239.704 599.523 238.671 598.864 237.666C598.126 236.571 597.254 235.477 596.275 234.453L595.403 234.676C594.406 234.889 593.463 235.272 592.511 235.619C592.048 235.815 591.594 236.046 591.131 236.269C590.668 236.474 590.232 236.723 589.796 236.999L589.031 237.462C589.049 238.859 589.227 240.274 589.467 241.565C589.707 242.731 590.054 243.852 590.455 244.911C590.357 245.009 590.259 245.098 590.17 245.196C589.11 244.795 587.989 244.449 586.824 244.208C585.534 243.968 584.11 243.79 582.721 243.781L582.249 244.546C581.982 244.973 581.733 245.409 581.519 245.881C581.306 246.335 581.074 246.789 580.878 247.251C580.522 248.203 580.149 249.156 579.935 250.143L579.713 251.015C580.736 252.003 581.831 252.866 582.926 253.614C583.931 254.272 584.964 254.815 585.987 255.287C585.987 255.349 585.978 255.412 585.978 255.483C585.978 255.554 585.987 255.617 585.987 255.688C584.964 256.151 583.931 256.703 582.926 257.361C581.831 258.1 580.737 258.972 579.713 259.951L579.935 260.823C580.149 261.811 580.522 262.763 580.878 263.715C581.074 264.178 581.306 264.632 581.519 265.094C581.732 265.557 581.982 265.993 582.249 266.42L582.721 267.185C584.109 267.176 585.533 266.998 586.824 266.758C587.99 266.518 589.111 266.171 590.17 265.77C590.259 265.868 590.357 265.966 590.455 266.055C590.054 267.114 589.707 268.235 589.467 269.401C589.227 270.691 589.049 272.115 589.031 273.504L589.796 273.976C590.232 274.243 590.668 274.492 591.131 274.697C591.594 274.92 592.048 275.151 592.511 275.347C593.463 275.703 594.406 276.077 595.403 276.29L596.275 276.513C597.254 275.489 598.126 274.395 598.864 273.3C599.523 272.295 600.075 271.262 600.538 270.23C600.609 270.239 600.671 270.248 600.743 270.248C600.805 270.248 600.876 270.239 600.939 270.23C601.411 271.262 601.954 272.295 602.612 273.3C603.36 274.395 604.223 275.489 605.211 276.513L606.083 276.29C607.071 276.076 608.014 275.703 608.966 275.347C609.438 275.151 609.892 274.92 610.346 274.697C610.809 274.492 611.254 274.243 611.681 273.976L612.446 273.504C612.437 272.116 612.259 270.692 612.01 269.401C611.778 268.235 611.422 267.114 611.031 266.055C611.129 265.966 611.218 265.868 611.316 265.77C612.366 266.17 613.496 266.518 614.662 266.758C615.953 266.998 617.368 267.176 618.765 267.185L619.228 266.42C619.504 265.993 619.753 265.557 619.958 265.094C620.18 264.631 620.412 264.177 620.608 263.715C620.955 262.763 621.338 261.811 621.551 260.823L621.774 259.951C620.751 258.972 619.647 258.1 618.561 257.361C617.547 256.703 616.515 256.151 615.491 255.688ZM600.745 262.541C596.847 262.541 593.688 259.382 593.688 255.484C593.688 251.586 596.848 248.427 600.745 248.427C604.643 248.427 607.802 251.586 607.802 255.484C607.802 259.382 604.643 262.541 600.745 262.541Z" fill="#323247"/>
<g id="Group_57">
<g id="Group_58">
<path id="Vector_165" d="M550.639 229.48H541.321V271.448H550.639V229.48Z" fill="#B83D5D"/>
<path id="Vector_166" d="M537.564 247.971H527.576V271.447H537.564V247.971Z" fill="#64648E"/>
<path id="Vector_167" d="M523.728 255.484H513.74V271.448H523.728V255.484Z" fill="#FD783D"/>
</g>
<g id="Group_59">
<g id="Group_60">
<path id="Vector_168" d="M511.973 264.762H509.973" stroke="#FD783D" stroke-miterlimit="10"/>
<path id="Vector_169" d="M504.902 264.762H497.296" stroke="#FD783D" stroke-miterlimit="10" stroke-dasharray="5.07 5.07"/>
<path id="Vector_170" d="M494.76 264.762H492.76V266.762" stroke="#FD783D" stroke-miterlimit="10"/>
<path id="Vector_171" d="M492.76 270.503V298.556" stroke="#FD783D" stroke-miterlimit="10" stroke-dasharray="3.74 3.74"/>
<path id="Vector_172" d="M492.76 300.427V302.427H494.76" stroke="#FD783D" stroke-miterlimit="10"/>
<path id="Vector_173" d="M498.156 302.427H510.042" stroke="#FD783D" stroke-miterlimit="10" stroke-dasharray="3.4 3.4"/>
<path id="Vector_174" d="M511.74 302.427H513.74" stroke="#FD783D" stroke-miterlimit="10"/>
</g>
</g>
<g id="Group_61">
<path id="Vector_175" d="M543.333 300.562H516.904V305.285H543.333V300.562Z" fill="white"/>
<path id="Vector_176" d="M535.184 309.301H516.904V314.024H535.184V309.301Z" fill="white"/>
<path id="Vector_177" d="M540.042 318.04H516.904V322.763H540.042V318.04Z" fill="white"/>
<path id="Vector_178" d="M550.231 318.04H544.829V322.763H550.231V318.04Z" fill="#EBA154"/>
<path id="Vector_179" d="M575.056 318.04H555.183V322.763H575.056V318.04Z" fill="#EBA154"/>
<path id="Vector_180" d="M575.056 309.301H541.042V314.024H575.056V309.301Z" fill="#EBA154"/>
<path id="Vector_181" d="M575.056 300.562H548.627V305.285H575.056V300.562Z" fill="#EBA154"/>
</g>
</g>
<g id="Group_62">
<path id="Vector_182" d="M665.693 252.923H648.278V261.234H665.693V252.923Z" fill="#B83D5D"/>
<path id="Vector_183" d="M665.693 267.443H648.278V275.754H665.693V267.443Z" fill="#B83D5D"/>
<path id="Vector_184" d="M665.693 281.962H648.278V290.273H665.693V281.962Z" fill="#B83D5D"/>
<path id="Vector_185" d="M665.693 296.481H648.278V304.792H665.693V296.481Z" fill="#B83D5D"/>
<path id="Vector_186" d="M665.693 311H648.278V319.311H665.693V311Z" fill="white"/>
<path id="Vector_187" d="M665.693 325.519H648.278V333.83H665.693V325.519Z" fill="white"/>
<path id="Vector_188" d="M665.693 340.039H648.278V348.35H665.693V340.039Z" fill="white"/>
</g>
</g>
<g id="Group_63">
<g id="Group_64">
<path id="Vector_189" d="M589.766 372.164C583.257 372.654 577.809 371.107 573.256 368.282C554.886 356.914 551.053 324.852 550.789 322.444C550.95 323.183 552.761 327.103 571.855 339.949C573.444 341.021 574.899 342.108 576.227 343.207C576.227 343.207 576.25 343.226 576.296 343.26C592.936 357.04 589.766 372.164 589.766 372.164Z" fill="#0C8068"/>
<path id="Vector_190" d="M550.776 322.302C550.776 322.302 567.93 364.396 586.959 368.827" stroke="#0A6D53" stroke-miterlimit="10"/>
<path id="Vector_191" opacity="0.5" d="M589.766 372.164C583.257 372.654 577.809 371.107 573.256 368.282C576.913 359.629 576.227 343.208 576.227 343.208C576.227 343.208 576.25 343.227 576.296 343.261C592.936 357.04 589.766 372.164 589.766 372.164Z" fill="#0A6D53"/>
</g>
<g id="Group_65">
<path id="Vector_192" d="M638.526 324.786C638.453 325.234 638.197 326.788 637.684 329.078C637.684 329.078 637.684 329.082 637.684 329.086C634.973 341.223 625.191 373.883 598.872 370.609C598.872 370.609 598.428 367.806 599.316 363.614C600.618 357.45 604.803 348.272 617.533 340.576C636.423 329.151 638.334 325.483 638.526 324.786Z" fill="#0C8068"/>
<path id="Vector_193" d="M637.683 327.379C637.683 327.379 624.176 362.375 600.745 369.512" stroke="#0A6D53" stroke-miterlimit="10"/>
<path id="Vector_194" opacity="0.5" d="M637.683 329.078C637.683 329.078 637.683 329.082 637.683 329.086C634.972 341.223 625.19 373.883 598.871 370.609C598.871 370.609 598.427 367.806 599.315 363.614H599.342C621.239 364.785 637.683 329.078 637.683 329.078Z" fill="#0A6D53"/>
</g>
<g id="Group_66">
<path id="Vector_195" d="M597.458 371.777C596.807 372.907 587.197 368.913 582.867 357.358H582.863C580.263 350.416 579.57 340.745 583.866 327.823C595.153 293.885 590.501 287.487 590.363 287.307C590.589 287.414 600.398 292.285 606.723 304.135C606.723 304.135 606.731 304.15 606.75 304.181C613.707 317.251 616.422 338.792 597.458 371.777Z" fill="#159A7A"/>
<path id="Vector_196" d="M590.358 287.302C590.358 287.302 605.076 305.872 599.472 341.195C593.867 376.517 597.458 371.776 597.458 371.776" stroke="#0C8068" stroke-miterlimit="10"/>
<path id="Vector_197" opacity="0.5" d="M597.458 371.777C596.807 372.907 587.197 368.913 582.867 357.358C607.099 364.242 606.724 304.134 606.724 304.134C606.724 304.134 606.732 304.149 606.751 304.18C613.707 317.251 616.422 338.792 597.458 371.777Z" fill="#0C8068"/>
</g>
<path id="Vector_198" d="M550.774 322.302C550.774 322.302 550.778 322.34 550.786 322.421C550.766 322.336 550.774 322.302 550.774 322.302Z" fill="#0C8068"/>
<path id="Vector_199" d="M616.085 371.271V398.398C616.085 406.335 609.653 412.767 601.716 412.767H588.959C583.763 412.767 579.211 410.01 576.688 405.875H576.684C575.355 403.696 574.59 401.135 574.59 398.397V371.27H616.085V371.271Z" fill="#EBA154"/>
<path id="Vector_200" d="M617.593 367.752H573.082C572.497 367.752 572.023 368.226 572.023 368.811V370.212C572.023 370.797 572.497 371.271 573.082 371.271H617.593C618.178 371.271 618.652 370.797 618.652 370.212V368.811C618.652 368.227 618.178 367.752 617.593 367.752Z" fill="#EBA154"/>
<path id="Vector_201" d="M616.085 371.271V398.398C616.085 406.335 609.653 412.767 601.716 412.767H588.959C583.763 412.767 579.211 410.01 576.688 405.875C607.081 415.42 613.682 393.072 612.506 384.208C611.334 375.345 600.384 371.271 600.384 371.271H616.085Z" fill="#DC831E"/>
</g>
</g>
</svg>
